<svg xmlns="http://www.w3.org/2000/svg" width="24" height="24" viewBox="0 0 24 24" fill="none" stroke="#06b6d4" stroke-width="2" stroke-linecap="round" stroke-linejoin="round"><line x1="6" x2="10" y1="12" y2="12"/><line x1="8" x2="8" y1="10" y2="14"/><path d="M13 17.5c0-2.24 1.76-4 3.93-4.2"/><path d="m22 13.5-1.49-1.49a2 2 0 0 0-2.83 0L16 13.5"/><path d="M17.5 13c-2.24 0-4 1.76-4.2 3.93"/><path d="m13.5 22 1.49-1.49a2 2 0 0 0 0-2.83L13.5 16"/><path d="M2.5 15.35V8.65A2.5 2.5 0 0 1 5 6.15h14a2.5 2.5 0 0 1 2.5 2.5v6.7A2.5 2.5 0 0 1 19 17.85H5a2.5 2.5 0 0 1-2.5-2.5Z"/></svg>
